<?xml version="1.0" encoding="utf-8"?>
<!-- Generator: Adobe Illustrator 24.2.3, SVG Export Plug-In . SVG Version: 6.00 Build 0)  -->
<svg version="1.1" id="Capa_1" xmlns="http://www.w3.org/2000/svg" xmlns:xlink="http://www.w3.org/1999/xlink" x="0px" y="0px"
	 viewBox="0 0 57.9 77.9" style="enable-background:new 0 0 57.9 77.9;" xml:space="preserve">
<style type="text/css">
	.st0{fill:#1C3560;}
</style>
<path id="Icon_awesome-clipboard-list" class="st0" d="M50.7,10.2H38.6c0.2-5.3-3.9-9.8-9.2-10.1S19.5,4,19.3,9.4c0,0.2,0,0.4,0,0.5
	v0.3H7.2c-4,0-7.2,3.2-7.2,7.2v53.1c0,4,3.2,7.2,7.2,7.2h43.4c4,0,7.2-3.2,7.2-7.2V17.4C57.9,13.4,54.6,10.2,50.7,10.2L50.7,10.2z
	 M14.5,64.5c-2,0-3.6-1.6-3.6-3.6c0-2,1.6-3.6,3.6-3.6c2,0,3.6,1.6,3.6,3.6C18.1,62.8,16.5,64.5,14.5,64.5
	C14.5,64.5,14.5,64.5,14.5,64.5z M14.5,50c-2,0-3.6-1.6-3.6-3.6c0-2,1.6-3.6,3.6-3.6c2,0,3.6,1.6,3.6,3.6c0,0,0,0,0,0
	C18.1,48.4,16.5,50,14.5,50C14.5,50,14.5,50,14.5,50z M14.5,35.5c-2,0-3.6-1.6-3.6-3.6s1.6-3.6,3.6-3.6c2,0,3.6,1.6,3.6,3.6
	C18.1,33.9,16.5,35.5,14.5,35.5C14.5,35.5,14.5,35.5,14.5,35.5L14.5,35.5z M28.9,6.6c2,0,3.6,1.6,3.6,3.6c0,2-1.6,3.6-3.6,3.6
	c-2,0-3.6-1.6-3.6-3.6c0,0,0,0,0,0C25.3,8.2,26.9,6.6,28.9,6.6z M48.2,62.1c0,0.7-0.5,1.2-1.2,1.2H25.3c-0.7,0-1.2-0.6-1.2-1.2v-2.4
	c0-0.7,0.5-1.2,1.2-1.2H47c0.7,0,1.2,0.5,1.2,1.2V62.1z M48.2,47.6c0,0.7-0.5,1.2-1.2,1.2H25.3c-0.7,0-1.2-0.5-1.2-1.2v-2.4
	c0-0.7,0.5-1.2,1.2-1.2H47c0.7,0,1.2,0.5,1.2,1.2V47.6z M48.2,33.1c0,0.7-0.5,1.2-1.2,1.2H25.3c-0.7,0-1.2-0.6-1.2-1.2v-2.4
	c0-0.7,0.5-1.2,1.2-1.2H47c0.7,0,1.2,0.5,1.2,1.2V33.1z"/>
</svg>
