<?xml version="1.0" encoding="utf-8"?>
<!-- Generator: Adobe Illustrator 24.2.3, SVG Export Plug-In . SVG Version: 6.00 Build 0)  -->
<svg version="1.1" id="Capa_1" xmlns="http://www.w3.org/2000/svg" xmlns:xlink="http://www.w3.org/1999/xlink" x="0px" y="0px"
	 viewBox="0 0 71.2 79.8" style="enable-background:new 0 0 71.2 79.8;" xml:space="preserve">
<style type="text/css">
	.st0{fill:#1C3560;}
</style>
<path class="st0" d="M51.9,38.8c8.8-9,8.7-23.4-0.3-32.3S28.2-2.2,19.3,6.8c-8.7,8.9-8.7,23.1,0,32C8.1,40.9,0,50.7,0,62.1v5.5
	c0,6.7,5.4,12.2,12.2,12.2h46.9c6.7,0,12.2-5.5,12.2-12.2v-5.5C71.2,50.7,63.1,40.9,51.9,38.8z M18.6,22.8c0-9.4,7.6-17.1,17-17.1
	c9.4,0,17.1,7.6,17.1,17s-7.6,17.1-17,17.1c0,0-0.1,0-0.1,0C26.2,39.8,18.6,32.2,18.6,22.8z M65.5,67.6c0,3.5-2.9,6.4-6.4,6.4H12.2
	c-3.5,0-6.3-2.9-6.3-6.4v-5.5c0-9.5,7.5-17.4,17-17.8L27,74l6.4-22.4l-4.2-7.5H42l-4.3,7.5L44.2,74l4.2-29.8
	c9.5,0.4,17.1,8.3,17.1,17.8V67.6z"/>
</svg>
