<svg viewBox="0 0 125.58 100.44" xmlns="http://www.w3.org/2000/svg"><path d="m91.06 17.24h-56.55a4.74 4.74 0 0 0 -4.7 4.76v56.45a4.73 4.73 0 0 0 4.7 4.75h56.55a4.75 4.75 0 0 0 4.71-4.75v-56.45a4.75 4.75 0 0 0 -4.71-4.76zm-41.31 56.54h-9.75v-31.48h9.79v31.48zm-4.89-35.78a5.67 5.67 0 1 1 5.66-5.67 5.67 5.67 0 0 1 -5.66 5.67zm41.53 35.78h-9.78v-15.31c0-3.65-.07-8.35-5.07-8.35s-5.88 4-5.88 8.08v15.58h-9.78v-31.48h9.38v4.3h.13a10.3 10.3 0 0 1 9.26-5.08c9.9 0 11.74 6.52 11.74 15z" fill="#1c3560"/></svg>